<svg xmlns="http://www.w3.org/2000/svg" viewBox="0 0 200 200" fill="none">
  <defs>
    <linearGradient id="scrub" x1="0" y1="0" x2="1" y2="1">
      <stop offset="0" stop-color="#f7fcff"/>
      <stop offset="1" stop-color="#d8ecff"/>
    </linearGradient>
    <linearGradient id="skin" x1="0" y1="0" x2="0" y2="1">
      <stop offset="0" stop-color="#f9d1b0"/>
      <stop offset="1" stop-color="#e6b48d"/>
    </linearGradient>
    <linearGradient id="hair" x1="0" y1="0" x2="1" y2="1">
      <stop offset="0" stop-color="#4a342a"/>
      <stop offset="1" stop-color="#2d1b14"/>
    </linearGradient>
    <linearGradient id="badge" x1="0" y1="0" x2="1" y2="1">
      <stop offset="0" stop-color="#ffcb77"/>
      <stop offset="1" stop-color="#da9a3f"/>
    </linearGradient>
  </defs>

  <ellipse cx="100" cy="185" rx="42" ry="9" fill="#0d344c" opacity="0.22"/>

  <path d="M66 167v-35c0-19 15-34 34-34 20 0 35 15 35 34v35H66z" fill="url(#scrub)" stroke="#7ab4dc" stroke-width="3"/>
  <path d="M93 104h14v22H93z" fill="#b6dcf8" opacity="0.85"/>
  <circle cx="100" cy="127" r="10" fill="url(#badge)"/>
  <path d="M100 121v12M94 127h12" stroke="#fff" stroke-width="3" stroke-linecap="round"/>

  <path d="M71 129l-13 10c-8 6-10 18-4 27l2 3 19-12-4-28z" fill="url(#scrub)" stroke="#7ab4dc" stroke-width="3"/>
  <path d="M129 129l14-10c8-6 19-4 25 4l2 3-16 12-23-9-2-0z" fill="url(#scrub)" stroke="#7ab4dc" stroke-width="3"/>
  <path d="M166 122l7 7c2 2 1 6-2 7l-8 2-3-10 6-6z" fill="url(#skin)"/>
  <path d="M170 130l8-2c3-1 6 1 6 4 0 2-1 4-3 5l-7 3-4-5z" fill="url(#skin)"/>

  <circle cx="100" cy="69" r="26" fill="url(#skin)"/>
  <path d="M74 67c0-16 12-30 28-30 13 0 24 9 28 21-5-5-11-8-19-8-11 0-20 6-26 17-3 5-11 4-11 0z" fill="url(#hair)"/>
  <circle cx="91" cy="71" r="2.6" fill="#2f221d"/>
  <circle cx="109" cy="71" r="2.6" fill="#2f221d"/>
  <path d="M93 83c2 3 5 5 8 5s6-2 8-5" stroke="#b87457" stroke-width="3" stroke-linecap="round"/>

  <path d="M80 45h40c5 0 9 4 9 9v5H71v-5c0-5 4-9 9-9z" fill="#ffffff" stroke="#7ab4dc" stroke-width="3"/>
  <path d="M100 49v10M95 54h10" stroke="#e25050" stroke-width="3.5" stroke-linecap="round"/>

  <path d="M90 159v24M110 159v24" stroke="#5f97bf" stroke-width="6" stroke-linecap="round"/>
</svg>
